<?xml version="1.0" encoding="UTF-8" standalone="no"?>
<!-- Created with Inkscape (http://www.inkscape.org/) -->

<svg
   xmlns:dc="http://purl.org/dc/elements/1.1/"
   xmlns:cc="http://creativecommons.org/ns#"
   xmlns:rdf="http://www.w3.org/1999/02/22-rdf-syntax-ns#"
   xmlns:svg="http://www.w3.org/2000/svg"
   xmlns="http://www.w3.org/2000/svg"
   xmlns:sodipodi="http://sodipodi.sourceforge.net/DTD/sodipodi-0.dtd"
   xmlns:inkscape="http://www.inkscape.org/namespaces/inkscape"
   width="210mm"
   height="297mm"
   viewBox="0 0 210 297"
   version="1.1"
   id="svg5514"
   inkscape:version="0.92.2 5c3e80d, 2017-08-06"
   sodipodi:docname="petals.svg">
  <defs
     id="defs5508" />
  <sodipodi:namedview
     id="base"
     pagecolor="#ffffff"
     bordercolor="#666666"
     borderopacity="1.0"
     inkscape:pageopacity="0.0"
     inkscape:pageshadow="2"
     inkscape:zoom="0.7"
     inkscape:cx="389.30375"
     inkscape:cy="542.24799"
     inkscape:document-units="mm"
     inkscape:current-layer="layer1"
     showgrid="false"
     inkscape:window-width="668"
     inkscape:window-height="859"
     inkscape:window-x="0"
     inkscape:window-y="1"
     inkscape:window-maximized="0" />
  <metadata
     id="metadata5511">
    <rdf:RDF>
      <cc:Work
         rdf:about="">
        <dc:format>image/svg+xml</dc:format>
        <dc:type
           rdf:resource="http://purl.org/dc/dcmitype/StillImage" />
        <dc:title></dc:title>
      </cc:Work>
    </rdf:RDF>
  </metadata>
  <g
     inkscape:label="Layer 1"
     inkscape:groupmode="layer"
     id="layer1">
    <path
       style="fill:#000000;stroke-width:0.35277778"
       d="m 177.59759,175.72003 c -0.11298,-0.58208 -0.36399,-3.0427 -0.55779,-5.46805 -0.38344,-4.79866 -1.9043,-11.75073 -2.81688,-12.87639 -0.3146,-0.38806 -0.75055,-1.12653 -0.96877,-1.64106 -0.55414,-1.30661 -3.5597,-5.20339 -4.97111,-6.44519 -1.69553,-1.49177 -4.20075,-3.03745 -6.23205,-3.84506 -2.29824,-0.91374 -8.00026,-0.96445 -10.49125,-0.0933 -1.63023,0.57013 -4.99274,0.48644 -5.37607,-0.13379 -0.0841,-0.13604 0.24294,-0.82984 0.72671,-1.54177 1.58944,-2.33906 6.54171,-4.22136 10.90727,-4.14573 2.55169,0.0442 6.08399,0.66289 6.70278,1.17399 0.87007,0.71865 4.73851,2.8661 6.23503,3.4612 0.9069,0.36063 2.4944,0.75164 3.52778,0.86892 3.78516,0.42956 9.41277,4.08953 12.49315,8.12504 2.95113,3.8662 4.83128,10.04785 4.87697,16.03481 0.0394,5.15742 -0.56268,6.9757 -3.15848,9.53925 -5.2844,4.24041 -9.53909,3.18727 -10.89729,-3.01287 z m 6.85479,4.03009 c 1.13299,-0.25864 2.07448,-0.83692 3.28847,-2.01985 2.50515,-2.44106 2.85379,-3.42663 2.83259,-8.00746 -0.0294,-6.36096 -1.98143,-12.36239 -5.31102,-16.32883 -0.93059,-1.10859 -1.78871,-2.06108 -1.90694,-2.11666 -0.11822,-0.0556 -0.83259,-0.65637 -1.5875,-1.3351 -1.7308,-1.55616 -5.84634,-3.55081 -7.81074,-3.78558 -0.82462,-0.0986 -1.49931,-0.13218 -1.49931,-0.0747 0,0.0575 1.11668,1.18729 2.48151,2.51073 1.36483,1.32344 2.57735,2.80914 2.69448,3.30154 0.11713,0.4924 0.32519,1.05403 0.46236,1.24806 0.78141,1.10533 1.07353,4.41799 1.21326,13.75833 0.0895,5.98448 0.30891,10.6398 0.52859,11.21659 0.21956,0.57649 0.85288,1.1935 1.52476,1.4855 1.38446,0.6017 1.14879,0.59046 3.08949,0.14744 z m -6.10553,-7.99212 c -0.0894,-0.34324 -0.16851,-0.14783 -0.1757,0.43426 -0.007,0.58208 0.066,0.86291 0.16263,0.62407 0.0966,-0.23884 0.10251,-0.71509 0.0131,-1.05833 z m -0.0511,-8.64977 c -0.0244,-5.30275 -0.15781,-7.39091 -0.51751,-8.10283 -0.26653,-0.52749 -0.6087,-0.88237 -0.76038,-0.78862 -0.15169,0.0937 -0.36778,-0.11936 -0.4802,-0.47356 -0.11242,-0.35421 -0.76888,-1.18995 -1.45879,-1.85721 l -1.2544,-1.2132 1.49138,2.57899 c 0.82026,1.41845 1.5376,3.00595 1.59408,3.52778 0.0565,0.52183 0.18975,1.42504 0.29616,2.00712 l 0.19347,1.05833 -0.5483,-1.18756 c -0.84651,-1.83349 -1.02037,-1.0312 -0.23296,1.07503 0.38657,1.03405 0.8041,3.30175 0.93007,5.05142 0.23433,3.25492 0.51083,5.46806 0.68315,5.46806 0.0534,0 0.0824,-3.21469 0.0642,-7.14375 z m -2.9995,-7.58472 c -0.70136,-2.02272 -1.77029,-4.09605 -1.9956,-3.87074 -0.09,0.09 -0.01,0.54129 0.17799,1.00292 0.18787,0.46164 0.42849,1.25011 0.53471,1.75216 0.1615,0.76328 1.44559,2.79135 1.76736,2.79135 0.0531,0 -0.16489,-0.75406 -0.48446,-1.67569 z m -3.43361,-8.21483 c -2.33721,-2.27329 -3.63804,-3.01377 -3.63804,-2.0709 0,0.2122 0.29625,0.46328 0.65834,0.55797 0.39285,0.10273 0.82536,0.72962 1.0725,1.55447 0.37237,1.24286 1.09138,1.92113 1.09138,1.02954 0,-0.19403 0.15875,-0.35278 0.35278,-0.35278 0.19403,0 0.35278,0.23812 0.35278,0.52917 0,0.29104 0.23678,0.52916 0.52617,0.52916 0.2894,0 0.72199,0.31354 0.96131,0.69675 0.29328,0.46963 0.55141,0.58047 0.79184,0.34004 0.24043,-0.24043 -0.46664,-1.15755 -2.16906,-2.81342 z m -7.04258,-2.99717 c -0.1093,-0.28482 -0.34049,-0.51786 -0.51376,-0.51786 -0.17327,0 -0.31503,-0.39129 -0.31503,-0.86954 0,-0.49862 -0.29107,-1.0253 -0.68237,-1.23472 -1.47661,-0.79025 -1.45527,-0.17609 0.065,1.87157 1.08671,1.46368 1.87726,1.87398 1.44616,0.75055 z m 2.69898,0.16687 c 0,-0.18258 -0.15875,-0.33196 -0.35277,-0.33196 -0.19403,0 -0.35278,0.2475 -0.35278,0.54999 0,0.30249 0.15875,0.45187 0.35278,0.33196 0.19402,-0.11992 0.35277,-0.36741 0.35277,-0.54999 z m -16.65205,-1.08917 c -0.90637,-0.57495 -1.3961,-0.36028 -0.97464,0.42721 0.31794,0.59409 0.48586,0.6486 0.91105,0.29573 0.41899,-0.34774 0.43147,-0.48957 0.0636,-0.72294 z m 10.30205,0.27124 c 0,-0.0733 -0.27781,-0.35107 -0.61736,-0.61736 -0.55952,-0.43881 -0.572,-0.42633 -0.13319,0.13319 0.46086,0.58764 0.75055,0.77452 0.75055,0.48417 z m -6.24921,-0.23854 c 0,-0.0762 -1.75827,-0.70565 -2.05939,-0.8212 -0.31394,-0.12047 -0.45555,-0.0613 -0.33195,0.13864 0.20717,0.33521 2.39134,0.96828 2.39134,0.68256 z m 3.42699,-2.2741 c -0.24933,-0.30042 -2.61156,-0.46684 -2.70858,-0.36983 -0.097,0.097 2.10647,0.42219 2.3558,0.72261 0.24933,0.30042 0.5327,0.46684 0.62971,0.36983 0.097,-0.097 -0.0276,-0.42219 -0.27693,-0.72261 z m 2.82222,0.54158 c 0,-0.1872 -0.30163,-0.50179 -0.67029,-0.69909 -0.51556,-0.27592 -0.72007,-0.22901 -0.88594,0.20325 -0.15209,0.39632 -0.0618,0.50295 0.30621,0.36172 0.28703,-0.11014 0.6157,-0.0484 0.73038,0.13711 0.26806,0.43373 0.51964,0.43228 0.51964,-0.003 z"
       id="path5688"
       inkscape:connector-curvature="0"
       sodipodi:nodetypes="cscccsccccscccccccscccccsssccccccccccccccccccccccccscccsccsccsccsssscsccsscccssscscccccsccssccsscsssccccccc" />
  </g>
</svg>
