<?xml version="1.0" encoding="UTF-8" standalone="no"?>
<!-- Created with Inkscape (http://www.inkscape.org/) -->

<svg
   xmlns:dc="http://purl.org/dc/elements/1.1/"
   xmlns:cc="http://creativecommons.org/ns#"
   xmlns:rdf="http://www.w3.org/1999/02/22-rdf-syntax-ns#"
   xmlns:svg="http://www.w3.org/2000/svg"
   xmlns="http://www.w3.org/2000/svg"
   xmlns:sodipodi="http://sodipodi.sourceforge.net/DTD/sodipodi-0.dtd"
   xmlns:inkscape="http://www.inkscape.org/namespaces/inkscape"
   width="210mm"
   height="297mm"
   viewBox="0 0 210 297"
   version="1.1"
   id="svg5514"
   inkscape:version="0.92.2 5c3e80d, 2017-08-06"
   sodipodi:docname="petals2.svg">
  <defs
     id="defs5508" />
  <sodipodi:namedview
     id="base"
     pagecolor="#ffffff"
     bordercolor="#666666"
     borderopacity="1.0"
     inkscape:pageopacity="0.0"
     inkscape:pageshadow="2"
     inkscape:zoom="0.98994949"
     inkscape:cx="497.82081"
     inkscape:cy="815.97892"
     inkscape:document-units="mm"
     inkscape:current-layer="layer1"
     showgrid="false"
     inkscape:window-width="668"
     inkscape:window-height="859"
     inkscape:window-x="0"
     inkscape:window-y="1"
     inkscape:window-maximized="0" />
  <metadata
     id="metadata5511">
    <rdf:RDF>
      <cc:Work
         rdf:about="">
        <dc:format>image/svg+xml</dc:format>
        <dc:type
           rdf:resource="http://purl.org/dc/dcmitype/StillImage" />
        <dc:title></dc:title>
      </cc:Work>
    </rdf:RDF>
  </metadata>
  <g
     inkscape:label="Layer 1"
     inkscape:groupmode="layer"
     id="layer1">
    <path
       style="fill:#000000;stroke-width:0.35277778"
       d="m 124.35416,80.214289 c -0.77611,-0.13902 -2.52249,-0.40076 -3.88084,-0.58165 -4.34599,-0.57877 -9.11002,-3.00906 -12.81458,-6.53715 -1.70662,-1.62532 -4.55407,-5.56057 -4.83585,-6.68328 -1.67102,-3.225627 -2.101,-6.443309 -2.26499,-8.36875 -0.34617,-3.37147 0.0819,-7.31221 0.97717,-8.99584 0.30952,-0.58208 0.53021,-1.17715 0.49042,-1.32236 -0.0398,-0.14522 0.4177,-1.30121 1.01664,-2.56888 1.23853,-2.62136 5.05702,-6.7231 6.60075,-7.0904 0.52412,-0.1247 1.34982,-0.43511 1.83489,-0.68979 3.05644,-1.60475 8.08133,-3.31026 9.77299,-3.31707 0.62146,-0.002 1.49458,0.14001 1.94028,0.31669 0.44569,0.17669 2.08034,0.59814 3.63257,0.93657 1.55222,0.33842 3.43809,0.82908 4.19083,1.09034 1.06475,0.36955 1.66317,0.38676 2.69541,0.0775 1.16683,-0.34959 1.50069,-0.2998 2.76886,0.41296 1.21347,0.682 1.60562,1.20628 2.47393,3.30746 2.04679,4.95295 2.88255,8.73371 2.89773,13.10853 0.008,2.29957 0.96181,7.50532 1.80472,9.84957 0.99248,2.76027 3.34489,6.87449 4.84104,8.46667 0.91162,0.97014 1.94306,2.20045 2.29209,2.73403 0.34902,0.53357 0.85446,0.97014 1.12318,0.97014 0.52706,0 0.63707,0.64104 0.21861,1.27395 -0.14255,0.21561 -1.0078,0.50233 -1.92279,0.63716 -0.91499,0.13484 -2.61839,0.63312 -3.78535,1.1073 -1.16696,0.47418 -2.56146,0.86463 -3.09889,0.86767 -0.53744,0.003 -2.47826,0.32233 -4.31296,0.70955 -2.58726,0.54604 -4.44757,0.68582 -8.29028,0.62292 -2.72495,-0.0446 -5.58947,-0.19482 -6.36558,-0.33383 z m 16.93334,-2.09682 c 2.93951,-0.44029 7.9375,-2.09133 7.9375,-2.62206 0,-0.20649 -0.62796,-0.98861 -1.39545,-1.73805 -0.7675,-0.74944 -1.49867,-1.85322 -1.62483,-2.45284 -0.12616,-0.59963 -0.67226,-1.88398 -1.21357,-2.85412 -2.30437,-4.12994 -4.31234,-10.98059 -4.2153,-14.38145 0.12601,-4.41586 -0.87037,-9.46776 -2.51025,-12.72758 -0.37525,-0.74594 -0.68227,-1.56857 -0.68227,-1.82806 0,-1.03505 -1.97029,-1.93909 -4.11566,-1.88842 -1.3893,0.0328 -3.60533,-0.36942 -6.82045,-1.23799 -2.61938,-0.70762 -5.23875,-1.2228 -5.82084,-1.14485 -1.75951,0.23565 -5.59718,1.35548 -6.36887,1.85844 -0.39843,0.25969 -1.62762,0.7829 -2.73152,1.1627 -2.63585,0.90686 -4.39191,2.28665 -5.16283,4.05658 -1.66795,3.82941 -2.14025,5.19187 -2.77254,7.9981 -0.48499,2.15246 -0.60481,3.48513 -0.41235,4.58611 1.25415,7.17436 4.61096,12.78371 10.39256,17.3663 6.29588,4.99022 9.72705,6.34251 17.4625,6.8823 2.63612,0.18396 4.26362,0.12532 5.64444,-0.20336 1.06716,-0.25402 3.05153,-0.6283 4.40973,-0.83175 z m -21.69584,-0.31846 c -0.69087,-0.44647 -3.06218,-0.780557 -2.78624,-0.334087 0.11991,0.19403 2.39077,0.684437 2.71887,0.681467 0.51409,-0.005 0.5234,-0.0527 0.0674,-0.34738 z m -5.08038,-2.70744 c -0.11325,-0.35417 -1.01053,-1.33577 -1.99396,-2.18132 -1.64978,-1.41849 -1.82316,-1.48934 -2.24222,-0.91624 -0.22122,-0.557785 3.04291,4.557038 4.27377,3.90982 0.0926,-0.0926 0.0757,-0.45815 -0.0375,-0.81233 z m -8.75459,-7.698575 c -3.94671,-4.555264 0.84152,4.060144 2.81249,4.612595 -0.93155,-4.90868 -0.58805,-1.841547 -2.81249,-4.612595 z m -2.544,-8.996765 c 0,-0.38805 -0.12473,-0.70555 -0.27718,-0.70555 -0.15245,0 -0.27718,-0.30813 -0.27718,-0.68474 0,-0.67507 -0.59363,-1.30867 -0.92018,-0.98212 -0.22064,0.22064 0.92645,3.07797 1.23566,3.07797 0.13139,0 0.23888,-0.3175 0.23888,-0.70556 z"
       id="path6049"
       inkscape:connector-curvature="0"
       sodipodi:nodetypes="cccccccccccccccccccccsccsccccccscccccsccccccccscccccccccccccccccssssss" />
  </g>
</svg>
